<mxfile host="app.diagrams.net" agent="Mozilla/5.0 (Windows NT 10.0; Win64; x64) AppleWebKit/537.36 (KHTML, like Gecko) Chrome/131.0.0.0 Safari/537.36" version="24.9.0">
  <diagram id="R2lEEEUBdFMjLlhIrx00" name="Page-1">
    <mxGraphModel dx="1472" dy="1105" grid="1" gridSize="10" guides="1" tooltips="1" connect="1" arrows="1" fold="1" page="1" pageScale="1" pageWidth="850" pageHeight="1100" math="0" shadow="0" extFonts="Permanent Marker^https://fonts.googleapis.com/css?family=Permanent+Marker">
      <root>
        <mxCell id="0" />
        <mxCell id="1" parent="0" />
        <mxCell id="ges_4KFM5wszxk1T4qdN-1" value="Users" style="rounded=0;whiteSpace=wrap;html=1;" vertex="1" parent="1">
          <mxGeometry x="140" y="150" width="60" height="20" as="geometry" />
        </mxCell>
        <mxCell id="ges_4KFM5wszxk1T4qdN-2" value="&lt;u&gt;user_id&lt;/u&gt;" style="ellipse;whiteSpace=wrap;html=1;" vertex="1" parent="1">
          <mxGeometry x="10" y="80" width="60" height="30" as="geometry" />
        </mxCell>
        <mxCell id="ges_4KFM5wszxk1T4qdN-3" value="" style="endArrow=none;html=1;rounded=0;" edge="1" parent="1" source="ges_4KFM5wszxk1T4qdN-1" target="ges_4KFM5wszxk1T4qdN-2">
          <mxGeometry width="50" height="50" relative="1" as="geometry">
            <mxPoint x="220" y="310" as="sourcePoint" />
            <mxPoint x="270" y="260" as="targetPoint" />
          </mxGeometry>
        </mxCell>
        <mxCell id="ges_4KFM5wszxk1T4qdN-5" value="" style="endArrow=none;html=1;rounded=0;" edge="1" parent="1" source="ges_4KFM5wszxk1T4qdN-1" target="ges_4KFM5wszxk1T4qdN-6">
          <mxGeometry width="50" height="50" relative="1" as="geometry">
            <mxPoint x="280" y="270" as="sourcePoint" />
            <mxPoint x="160" y="110" as="targetPoint" />
          </mxGeometry>
        </mxCell>
        <mxCell id="ges_4KFM5wszxk1T4qdN-6" value="first_name" style="ellipse;whiteSpace=wrap;html=1;" vertex="1" parent="1">
          <mxGeometry x="90" y="30" width="80" height="30" as="geometry" />
        </mxCell>
        <mxCell id="ges_4KFM5wszxk1T4qdN-8" value="last_name" style="ellipse;whiteSpace=wrap;html=1;" vertex="1" parent="1">
          <mxGeometry x="180" y="30" width="80" height="30" as="geometry" />
        </mxCell>
        <mxCell id="ges_4KFM5wszxk1T4qdN-10" value="" style="endArrow=none;html=1;rounded=0;" edge="1" parent="1" source="ges_4KFM5wszxk1T4qdN-1" target="ges_4KFM5wszxk1T4qdN-8">
          <mxGeometry width="50" height="50" relative="1" as="geometry">
            <mxPoint x="300" y="370" as="sourcePoint" />
            <mxPoint x="350" y="320" as="targetPoint" />
          </mxGeometry>
        </mxCell>
        <mxCell id="ges_4KFM5wszxk1T4qdN-11" value="email" style="ellipse;whiteSpace=wrap;html=1;" vertex="1" parent="1">
          <mxGeometry x="230" y="70" width="60" height="20" as="geometry" />
        </mxCell>
        <mxCell id="ges_4KFM5wszxk1T4qdN-12" value="" style="endArrow=none;html=1;rounded=0;" edge="1" parent="1" source="ges_4KFM5wszxk1T4qdN-1" target="ges_4KFM5wszxk1T4qdN-11">
          <mxGeometry width="50" height="50" relative="1" as="geometry">
            <mxPoint x="160" y="240" as="sourcePoint" />
            <mxPoint x="210" y="190" as="targetPoint" />
          </mxGeometry>
        </mxCell>
        <mxCell id="ges_4KFM5wszxk1T4qdN-13" value="password_hash" style="ellipse;whiteSpace=wrap;html=1;" vertex="1" parent="1">
          <mxGeometry x="10" y="150" width="100" height="30" as="geometry" />
        </mxCell>
        <mxCell id="ges_4KFM5wszxk1T4qdN-14" value="" style="endArrow=none;html=1;rounded=0;" edge="1" parent="1" source="ges_4KFM5wszxk1T4qdN-13" target="ges_4KFM5wszxk1T4qdN-1">
          <mxGeometry width="50" height="50" relative="1" as="geometry">
            <mxPoint x="50" y="340" as="sourcePoint" />
            <mxPoint x="100" y="290" as="targetPoint" />
          </mxGeometry>
        </mxCell>
        <mxCell id="ges_4KFM5wszxk1T4qdN-15" value="is_host" style="ellipse;whiteSpace=wrap;html=1;" vertex="1" parent="1">
          <mxGeometry x="80" y="90" width="60" height="20" as="geometry" />
        </mxCell>
        <mxCell id="ges_4KFM5wszxk1T4qdN-17" value="" style="endArrow=none;html=1;rounded=0;" edge="1" parent="1" source="ges_4KFM5wszxk1T4qdN-15" target="ges_4KFM5wszxk1T4qdN-1">
          <mxGeometry width="50" height="50" relative="1" as="geometry">
            <mxPoint x="460" y="420" as="sourcePoint" />
            <mxPoint x="510" y="370" as="targetPoint" />
          </mxGeometry>
        </mxCell>
        <mxCell id="ges_4KFM5wszxk1T4qdN-18" value="created_at" style="ellipse;whiteSpace=wrap;html=1;" vertex="1" parent="1">
          <mxGeometry x="230" y="110" width="80" height="30" as="geometry" />
        </mxCell>
        <mxCell id="ges_4KFM5wszxk1T4qdN-19" value="" style="endArrow=none;html=1;rounded=0;" edge="1" parent="1" source="ges_4KFM5wszxk1T4qdN-1" target="ges_4KFM5wszxk1T4qdN-18">
          <mxGeometry width="50" height="50" relative="1" as="geometry">
            <mxPoint x="120" y="280" as="sourcePoint" />
            <mxPoint x="170" y="230" as="targetPoint" />
          </mxGeometry>
        </mxCell>
        <mxCell id="ges_4KFM5wszxk1T4qdN-20" value="Spaces" style="rounded=0;whiteSpace=wrap;html=1;" vertex="1" parent="1">
          <mxGeometry x="230" y="430" width="60" height="30" as="geometry" />
        </mxCell>
        <mxCell id="ges_4KFM5wszxk1T4qdN-21" value="&lt;u&gt;space_id&lt;/u&gt;" style="ellipse;whiteSpace=wrap;html=1;" vertex="1" parent="1">
          <mxGeometry x="40" y="430" width="80" height="30" as="geometry" />
        </mxCell>
        <mxCell id="ges_4KFM5wszxk1T4qdN-22" value="" style="endArrow=none;html=1;rounded=0;" edge="1" parent="1" source="ges_4KFM5wszxk1T4qdN-21" target="ges_4KFM5wszxk1T4qdN-20">
          <mxGeometry width="50" height="50" relative="1" as="geometry">
            <mxPoint x="160" y="350" as="sourcePoint" />
            <mxPoint x="210" y="300" as="targetPoint" />
          </mxGeometry>
        </mxCell>
        <mxCell id="ges_4KFM5wszxk1T4qdN-23" value="modified_at" style="ellipse;whiteSpace=wrap;html=1;" vertex="1" parent="1">
          <mxGeometry x="40" y="360" width="70" height="30" as="geometry" />
        </mxCell>
        <mxCell id="ges_4KFM5wszxk1T4qdN-24" value="created_at" style="ellipse;whiteSpace=wrap;html=1;" vertex="1" parent="1">
          <mxGeometry x="170" y="570" width="70" height="30" as="geometry" />
        </mxCell>
        <mxCell id="ges_4KFM5wszxk1T4qdN-25" value="is_approved" style="ellipse;whiteSpace=wrap;html=1;" vertex="1" parent="1">
          <mxGeometry x="120" y="360" width="80" height="30" as="geometry" />
        </mxCell>
        <mxCell id="ges_4KFM5wszxk1T4qdN-26" value="capacity" style="ellipse;whiteSpace=wrap;html=1;" vertex="1" parent="1">
          <mxGeometry x="50" y="515" width="60" height="20" as="geometry" />
        </mxCell>
        <mxCell id="ges_4KFM5wszxk1T4qdN-27" value="description" style="ellipse;whiteSpace=wrap;html=1;" vertex="1" parent="1">
          <mxGeometry x="140" y="510" width="70" height="30" as="geometry" />
        </mxCell>
        <mxCell id="ges_4KFM5wszxk1T4qdN-28" value="space_name" style="ellipse;whiteSpace=wrap;html=1;" vertex="1" parent="1">
          <mxGeometry x="40" y="470" width="80" height="40" as="geometry" />
        </mxCell>
        <mxCell id="ges_4KFM5wszxk1T4qdN-29" value="" style="endArrow=none;html=1;rounded=0;" edge="1" parent="1" source="ges_4KFM5wszxk1T4qdN-28" target="ges_4KFM5wszxk1T4qdN-20">
          <mxGeometry width="50" height="50" relative="1" as="geometry">
            <mxPoint x="160" y="360" as="sourcePoint" />
            <mxPoint x="210" y="310" as="targetPoint" />
          </mxGeometry>
        </mxCell>
        <mxCell id="ges_4KFM5wszxk1T4qdN-30" value="" style="endArrow=none;html=1;rounded=0;" edge="1" parent="1" source="ges_4KFM5wszxk1T4qdN-26" target="ges_4KFM5wszxk1T4qdN-20">
          <mxGeometry width="50" height="50" relative="1" as="geometry">
            <mxPoint x="160" y="350" as="sourcePoint" />
            <mxPoint x="210" y="300" as="targetPoint" />
          </mxGeometry>
        </mxCell>
        <mxCell id="ges_4KFM5wszxk1T4qdN-31" value="" style="endArrow=none;html=1;rounded=0;" edge="1" parent="1" source="ges_4KFM5wszxk1T4qdN-20" target="ges_4KFM5wszxk1T4qdN-27">
          <mxGeometry width="50" height="50" relative="1" as="geometry">
            <mxPoint x="460" y="430" as="sourcePoint" />
            <mxPoint x="510" y="380" as="targetPoint" />
          </mxGeometry>
        </mxCell>
        <mxCell id="ges_4KFM5wszxk1T4qdN-32" value="" style="endArrow=none;html=1;rounded=0;" edge="1" parent="1" source="ges_4KFM5wszxk1T4qdN-20" target="ges_4KFM5wszxk1T4qdN-25">
          <mxGeometry width="50" height="50" relative="1" as="geometry">
            <mxPoint x="470" y="440" as="sourcePoint" />
            <mxPoint x="520" y="390" as="targetPoint" />
          </mxGeometry>
        </mxCell>
        <mxCell id="ges_4KFM5wszxk1T4qdN-33" value="" style="endArrow=none;html=1;rounded=0;" edge="1" parent="1" source="ges_4KFM5wszxk1T4qdN-20" target="ges_4KFM5wszxk1T4qdN-24">
          <mxGeometry width="50" height="50" relative="1" as="geometry">
            <mxPoint x="480" y="450" as="sourcePoint" />
            <mxPoint x="530" y="400" as="targetPoint" />
          </mxGeometry>
        </mxCell>
        <mxCell id="ges_4KFM5wszxk1T4qdN-34" value="" style="endArrow=none;html=1;rounded=0;" edge="1" parent="1" source="ges_4KFM5wszxk1T4qdN-20" target="ges_4KFM5wszxk1T4qdN-23">
          <mxGeometry width="50" height="50" relative="1" as="geometry">
            <mxPoint x="490" y="460" as="sourcePoint" />
            <mxPoint x="540" y="410" as="targetPoint" />
          </mxGeometry>
        </mxCell>
        <mxCell id="ges_4KFM5wszxk1T4qdN-35" value="host_id (FK)" style="ellipse;whiteSpace=wrap;html=1;" vertex="1" parent="1">
          <mxGeometry x="40" y="390" width="80" height="30" as="geometry" />
        </mxCell>
        <mxCell id="ges_4KFM5wszxk1T4qdN-36" value="" style="endArrow=none;html=1;rounded=0;" edge="1" parent="1" source="ges_4KFM5wszxk1T4qdN-20" target="ges_4KFM5wszxk1T4qdN-35">
          <mxGeometry width="50" height="50" relative="1" as="geometry">
            <mxPoint x="230" y="370" as="sourcePoint" />
            <mxPoint x="280" y="320" as="targetPoint" />
          </mxGeometry>
        </mxCell>
        <mxCell id="ges_4KFM5wszxk1T4qdN-38" value="OperatingHours" style="shape=ext;margin=3;double=1;whiteSpace=wrap;html=1;align=center;" vertex="1" parent="1">
          <mxGeometry x="560" y="415" width="100" height="40" as="geometry" />
        </mxCell>
        <mxCell id="ges_4KFM5wszxk1T4qdN-40" value="space_id (FK)" style="ellipse;whiteSpace=wrap;html=1;" vertex="1" parent="1">
          <mxGeometry x="560" y="480" width="100" height="30" as="geometry" />
        </mxCell>
        <mxCell id="ges_4KFM5wszxk1T4qdN-41" value="" style="endArrow=none;html=1;rounded=0;" edge="1" parent="1" source="ges_4KFM5wszxk1T4qdN-40" target="ges_4KFM5wszxk1T4qdN-38">
          <mxGeometry width="50" height="50" relative="1" as="geometry">
            <mxPoint x="480" y="605" as="sourcePoint" />
            <mxPoint x="530" y="555" as="targetPoint" />
          </mxGeometry>
        </mxCell>
        <mxCell id="ges_4KFM5wszxk1T4qdN-42" value="day_of_week" style="ellipse;whiteSpace=wrap;html=1;" vertex="1" parent="1">
          <mxGeometry x="660" y="475" width="100" height="30" as="geometry" />
        </mxCell>
        <mxCell id="ges_4KFM5wszxk1T4qdN-43" value="" style="endArrow=none;html=1;rounded=0;" edge="1" parent="1" source="ges_4KFM5wszxk1T4qdN-42" target="ges_4KFM5wszxk1T4qdN-38">
          <mxGeometry width="50" height="50" relative="1" as="geometry">
            <mxPoint x="770" y="325" as="sourcePoint" />
            <mxPoint x="820" y="275" as="targetPoint" />
          </mxGeometry>
        </mxCell>
        <mxCell id="ges_4KFM5wszxk1T4qdN-44" value="open_time" style="ellipse;whiteSpace=wrap;html=1;" vertex="1" parent="1">
          <mxGeometry x="690" y="390" width="70" height="30" as="geometry" />
        </mxCell>
        <mxCell id="ges_4KFM5wszxk1T4qdN-45" value="close_time" style="ellipse;whiteSpace=wrap;html=1;" vertex="1" parent="1">
          <mxGeometry x="680" y="430" width="90" height="30" as="geometry" />
        </mxCell>
        <mxCell id="ges_4KFM5wszxk1T4qdN-51" value="" style="endArrow=none;html=1;rounded=0;" edge="1" parent="1" source="ges_4KFM5wszxk1T4qdN-38" target="ges_4KFM5wszxk1T4qdN-45">
          <mxGeometry width="50" height="50" relative="1" as="geometry">
            <mxPoint x="510" y="345" as="sourcePoint" />
            <mxPoint x="560" y="295" as="targetPoint" />
          </mxGeometry>
        </mxCell>
        <mxCell id="ges_4KFM5wszxk1T4qdN-52" value="" style="endArrow=none;html=1;rounded=0;" edge="1" parent="1" source="ges_4KFM5wszxk1T4qdN-38" target="ges_4KFM5wszxk1T4qdN-44">
          <mxGeometry width="50" height="50" relative="1" as="geometry">
            <mxPoint x="510" y="355" as="sourcePoint" />
            <mxPoint x="560" y="305" as="targetPoint" />
          </mxGeometry>
        </mxCell>
        <mxCell id="ges_4KFM5wszxk1T4qdN-53" value="is_closed" style="ellipse;whiteSpace=wrap;html=1;" vertex="1" parent="1">
          <mxGeometry x="570" y="350" width="80" height="30" as="geometry" />
        </mxCell>
        <mxCell id="ges_4KFM5wszxk1T4qdN-55" value="" style="endArrow=none;html=1;rounded=0;" edge="1" parent="1" source="ges_4KFM5wszxk1T4qdN-38" target="ges_4KFM5wszxk1T4qdN-53">
          <mxGeometry width="50" height="50" relative="1" as="geometry">
            <mxPoint x="340" y="335" as="sourcePoint" />
            <mxPoint x="450" y="345" as="targetPoint" />
          </mxGeometry>
        </mxCell>
        <mxCell id="ges_4KFM5wszxk1T4qdN-57" value="Reservations" style="rounded=0;whiteSpace=wrap;html=1;" vertex="1" parent="1">
          <mxGeometry x="580" y="145" width="70" height="30" as="geometry" />
        </mxCell>
        <mxCell id="ges_4KFM5wszxk1T4qdN-58" value="reservation_id" style="ellipse;whiteSpace=wrap;html=1;" vertex="1" parent="1">
          <mxGeometry x="780" y="190" width="100" height="40" as="geometry" />
        </mxCell>
        <mxCell id="ges_4KFM5wszxk1T4qdN-59" value="" style="endArrow=none;html=1;rounded=0;" edge="1" parent="1" source="ges_4KFM5wszxk1T4qdN-57" target="ges_4KFM5wszxk1T4qdN-58">
          <mxGeometry width="50" height="50" relative="1" as="geometry">
            <mxPoint x="670" y="320" as="sourcePoint" />
            <mxPoint x="720" y="270" as="targetPoint" />
          </mxGeometry>
        </mxCell>
        <mxCell id="ges_4KFM5wszxk1T4qdN-60" value="space_id (FK)" style="ellipse;whiteSpace=wrap;html=1;" vertex="1" parent="1">
          <mxGeometry x="500" y="60" width="90" height="30" as="geometry" />
        </mxCell>
        <mxCell id="ges_4KFM5wszxk1T4qdN-61" value="user_id (FK)" style="ellipse;whiteSpace=wrap;html=1;" vertex="1" parent="1">
          <mxGeometry x="620" y="60" width="90" height="30" as="geometry" />
        </mxCell>
        <mxCell id="ges_4KFM5wszxk1T4qdN-62" value="" style="endArrow=none;html=1;rounded=0;" edge="1" parent="1" source="ges_4KFM5wszxk1T4qdN-57" target="ges_4KFM5wszxk1T4qdN-60">
          <mxGeometry width="50" height="50" relative="1" as="geometry">
            <mxPoint x="350" y="330" as="sourcePoint" />
            <mxPoint x="400" y="280" as="targetPoint" />
          </mxGeometry>
        </mxCell>
        <mxCell id="ges_4KFM5wszxk1T4qdN-63" value="" style="endArrow=none;html=1;rounded=0;" edge="1" parent="1" source="ges_4KFM5wszxk1T4qdN-57" target="ges_4KFM5wszxk1T4qdN-61">
          <mxGeometry width="50" height="50" relative="1" as="geometry">
            <mxPoint x="460" y="340" as="sourcePoint" />
            <mxPoint x="510" y="290" as="targetPoint" />
          </mxGeometry>
        </mxCell>
        <mxCell id="ges_4KFM5wszxk1T4qdN-64" value="end_time" style="ellipse;whiteSpace=wrap;html=1;" vertex="1" parent="1">
          <mxGeometry x="710" y="230" width="70" height="30" as="geometry" />
        </mxCell>
        <mxCell id="ges_4KFM5wszxk1T4qdN-65" value="start_time" style="ellipse;whiteSpace=wrap;html=1;" vertex="1" parent="1">
          <mxGeometry x="790" y="230" width="70" height="30" as="geometry" />
        </mxCell>
        <mxCell id="ges_4KFM5wszxk1T4qdN-69" value="" style="endArrow=none;html=1;rounded=0;" edge="1" parent="1" source="ges_4KFM5wszxk1T4qdN-64" target="ges_4KFM5wszxk1T4qdN-57">
          <mxGeometry width="50" height="50" relative="1" as="geometry">
            <mxPoint x="620" y="370" as="sourcePoint" />
            <mxPoint x="670" y="320" as="targetPoint" />
          </mxGeometry>
        </mxCell>
        <mxCell id="ges_4KFM5wszxk1T4qdN-70" value="" style="endArrow=none;html=1;rounded=0;" edge="1" parent="1" source="ges_4KFM5wszxk1T4qdN-65" target="ges_4KFM5wszxk1T4qdN-57">
          <mxGeometry width="50" height="50" relative="1" as="geometry">
            <mxPoint x="620" y="370" as="sourcePoint" />
            <mxPoint x="670" y="320" as="targetPoint" />
          </mxGeometry>
        </mxCell>
        <mxCell id="ges_4KFM5wszxk1T4qdN-72" value="status" style="ellipse;whiteSpace=wrap;html=1;" vertex="1" parent="1">
          <mxGeometry x="660" y="235" width="50" height="20" as="geometry" />
        </mxCell>
        <mxCell id="ges_4KFM5wszxk1T4qdN-73" value="" style="endArrow=none;html=1;rounded=0;" edge="1" parent="1" source="ges_4KFM5wszxk1T4qdN-72" target="ges_4KFM5wszxk1T4qdN-57">
          <mxGeometry width="50" height="50" relative="1" as="geometry">
            <mxPoint x="430" y="350" as="sourcePoint" />
            <mxPoint x="480" y="300" as="targetPoint" />
          </mxGeometry>
        </mxCell>
        <mxCell id="ges_4KFM5wszxk1T4qdN-74" value="modified_at" style="ellipse;whiteSpace=wrap;html=1;" vertex="1" parent="1">
          <mxGeometry x="800" y="160" width="80" height="30" as="geometry" />
        </mxCell>
        <mxCell id="ges_4KFM5wszxk1T4qdN-75" value="created_at" style="ellipse;whiteSpace=wrap;html=1;" vertex="1" parent="1">
          <mxGeometry x="800" y="110" width="80" height="30" as="geometry" />
        </mxCell>
        <mxCell id="ges_4KFM5wszxk1T4qdN-76" value="created_by" style="ellipse;whiteSpace=wrap;html=1;" vertex="1" parent="1">
          <mxGeometry x="730" y="75" width="80" height="30" as="geometry" />
        </mxCell>
        <mxCell id="ges_4KFM5wszxk1T4qdN-77" value="" style="endArrow=none;html=1;rounded=0;" edge="1" parent="1" source="ges_4KFM5wszxk1T4qdN-57" target="ges_4KFM5wszxk1T4qdN-74">
          <mxGeometry width="50" height="50" relative="1" as="geometry">
            <mxPoint x="620" y="370" as="sourcePoint" />
            <mxPoint x="670" y="320" as="targetPoint" />
          </mxGeometry>
        </mxCell>
        <mxCell id="ges_4KFM5wszxk1T4qdN-78" value="" style="endArrow=none;html=1;rounded=0;" edge="1" parent="1" source="ges_4KFM5wszxk1T4qdN-57" target="ges_4KFM5wszxk1T4qdN-75">
          <mxGeometry width="50" height="50" relative="1" as="geometry">
            <mxPoint x="620" y="370" as="sourcePoint" />
            <mxPoint x="670" y="320" as="targetPoint" />
          </mxGeometry>
        </mxCell>
        <mxCell id="ges_4KFM5wszxk1T4qdN-79" value="" style="endArrow=none;html=1;rounded=0;" edge="1" parent="1" source="ges_4KFM5wszxk1T4qdN-57" target="ges_4KFM5wszxk1T4qdN-76">
          <mxGeometry width="50" height="50" relative="1" as="geometry">
            <mxPoint x="620" y="370" as="sourcePoint" />
            <mxPoint x="670" y="320" as="targetPoint" />
          </mxGeometry>
        </mxCell>
        <mxCell id="ges_4KFM5wszxk1T4qdN-80" value="last_modified_by" style="ellipse;whiteSpace=wrap;html=1;" vertex="1" parent="1">
          <mxGeometry x="540" y="227.5" width="110" height="32.5" as="geometry" />
        </mxCell>
        <mxCell id="ges_4KFM5wszxk1T4qdN-81" value="" style="endArrow=none;html=1;rounded=0;" edge="1" parent="1" source="ges_4KFM5wszxk1T4qdN-57" target="ges_4KFM5wszxk1T4qdN-80">
          <mxGeometry width="50" height="50" relative="1" as="geometry">
            <mxPoint x="620" y="370" as="sourcePoint" />
            <mxPoint x="670" y="320" as="targetPoint" />
          </mxGeometry>
        </mxCell>
        <mxCell id="ges_4KFM5wszxk1T4qdN-83" value="SpaceRules" style="shape=ext;margin=3;double=1;whiteSpace=wrap;html=1;align=center;" vertex="1" parent="1">
          <mxGeometry x="380" y="610" width="100" height="40" as="geometry" />
        </mxCell>
        <mxCell id="ges_4KFM5wszxk1T4qdN-84" value="space_id (FK)" style="ellipse;whiteSpace=wrap;html=1;" vertex="1" parent="1">
          <mxGeometry x="260" y="670" width="90" height="30" as="geometry" />
        </mxCell>
        <mxCell id="ges_4KFM5wszxk1T4qdN-85" value="min_duration_minutes" style="ellipse;whiteSpace=wrap;html=1;" vertex="1" parent="1">
          <mxGeometry x="145" y="650" width="120" height="40" as="geometry" />
        </mxCell>
        <mxCell id="ges_4KFM5wszxk1T4qdN-88" value="max_duration_minutes" style="ellipse;whiteSpace=wrap;html=1;" vertex="1" parent="1">
          <mxGeometry x="565" y="680" width="150" height="30" as="geometry" />
        </mxCell>
        <mxCell id="ges_4KFM5wszxk1T4qdN-90" value="max_advance_days" style="ellipse;whiteSpace=wrap;html=1;" vertex="1" parent="1">
          <mxGeometry x="230" y="730" width="120" height="30" as="geometry" />
        </mxCell>
        <mxCell id="ges_4KFM5wszxk1T4qdN-91" value="min_notice_hours" style="ellipse;whiteSpace=wrap;html=1;" vertex="1" parent="1">
          <mxGeometry x="445" y="720" width="120" height="30" as="geometry" />
        </mxCell>
        <mxCell id="ges_4KFM5wszxk1T4qdN-92" value="modification_deadline_hours" style="ellipse;whiteSpace=wrap;html=1;" vertex="1" parent="1">
          <mxGeometry x="550" y="740" width="160" height="40" as="geometry" />
        </mxCell>
        <mxCell id="ges_4KFM5wszxk1T4qdN-94" value="created_at" style="ellipse;whiteSpace=wrap;html=1;" vertex="1" parent="1">
          <mxGeometry x="315" y="770" width="90" height="20" as="geometry" />
        </mxCell>
        <mxCell id="ges_4KFM5wszxk1T4qdN-95" value="modified_at" style="ellipse;whiteSpace=wrap;html=1;" vertex="1" parent="1">
          <mxGeometry x="380" y="820" width="80" height="30" as="geometry" />
        </mxCell>
        <mxCell id="ges_4KFM5wszxk1T4qdN-96" value="" style="endArrow=none;html=1;rounded=0;" edge="1" parent="1" source="ges_4KFM5wszxk1T4qdN-94" target="ges_4KFM5wszxk1T4qdN-83">
          <mxGeometry width="50" height="50" relative="1" as="geometry">
            <mxPoint x="680" y="640" as="sourcePoint" />
            <mxPoint x="730" y="590" as="targetPoint" />
          </mxGeometry>
        </mxCell>
        <mxCell id="ges_4KFM5wszxk1T4qdN-97" value="" style="endArrow=none;html=1;rounded=0;" edge="1" parent="1" source="ges_4KFM5wszxk1T4qdN-90" target="ges_4KFM5wszxk1T4qdN-83">
          <mxGeometry width="50" height="50" relative="1" as="geometry">
            <mxPoint x="680" y="640" as="sourcePoint" />
            <mxPoint x="730" y="590" as="targetPoint" />
          </mxGeometry>
        </mxCell>
        <mxCell id="ges_4KFM5wszxk1T4qdN-98" value="" style="endArrow=none;html=1;rounded=0;" edge="1" parent="1" source="ges_4KFM5wszxk1T4qdN-95" target="ges_4KFM5wszxk1T4qdN-83">
          <mxGeometry width="50" height="50" relative="1" as="geometry">
            <mxPoint x="680" y="640" as="sourcePoint" />
            <mxPoint x="730" y="590" as="targetPoint" />
          </mxGeometry>
        </mxCell>
        <mxCell id="ges_4KFM5wszxk1T4qdN-99" value="" style="endArrow=none;html=1;rounded=0;" edge="1" parent="1" source="ges_4KFM5wszxk1T4qdN-91" target="ges_4KFM5wszxk1T4qdN-83">
          <mxGeometry width="50" height="50" relative="1" as="geometry">
            <mxPoint x="680" y="640" as="sourcePoint" />
            <mxPoint x="730" y="590" as="targetPoint" />
          </mxGeometry>
        </mxCell>
        <mxCell id="ges_4KFM5wszxk1T4qdN-100" value="" style="endArrow=none;html=1;rounded=0;" edge="1" parent="1" source="ges_4KFM5wszxk1T4qdN-92" target="ges_4KFM5wszxk1T4qdN-83">
          <mxGeometry width="50" height="50" relative="1" as="geometry">
            <mxPoint x="680" y="640" as="sourcePoint" />
            <mxPoint x="730" y="590" as="targetPoint" />
          </mxGeometry>
        </mxCell>
        <mxCell id="ges_4KFM5wszxk1T4qdN-101" value="" style="endArrow=none;html=1;rounded=0;" edge="1" parent="1" source="ges_4KFM5wszxk1T4qdN-88" target="ges_4KFM5wszxk1T4qdN-83">
          <mxGeometry width="50" height="50" relative="1" as="geometry">
            <mxPoint x="680" y="640" as="sourcePoint" />
            <mxPoint x="730" y="590" as="targetPoint" />
          </mxGeometry>
        </mxCell>
        <mxCell id="ges_4KFM5wszxk1T4qdN-102" value="" style="endArrow=none;html=1;rounded=0;" edge="1" parent="1" source="ges_4KFM5wszxk1T4qdN-85" target="ges_4KFM5wszxk1T4qdN-83">
          <mxGeometry width="50" height="50" relative="1" as="geometry">
            <mxPoint x="680" y="640" as="sourcePoint" />
            <mxPoint x="730" y="590" as="targetPoint" />
          </mxGeometry>
        </mxCell>
        <mxCell id="ges_4KFM5wszxk1T4qdN-103" value="" style="endArrow=none;html=1;rounded=0;" edge="1" parent="1" source="ges_4KFM5wszxk1T4qdN-83" target="ges_4KFM5wszxk1T4qdN-84">
          <mxGeometry width="50" height="50" relative="1" as="geometry">
            <mxPoint x="680" y="640" as="sourcePoint" />
            <mxPoint x="730" y="590" as="targetPoint" />
          </mxGeometry>
        </mxCell>
        <mxCell id="ges_4KFM5wszxk1T4qdN-104" value="creates" style="rhombus;whiteSpace=wrap;html=1;" vertex="1" parent="1">
          <mxGeometry x="385" y="120" width="80" height="80" as="geometry" />
        </mxCell>
        <mxCell id="ges_4KFM5wszxk1T4qdN-105" value="" style="endArrow=none;html=1;rounded=0;" edge="1" parent="1" source="ges_4KFM5wszxk1T4qdN-1" target="ges_4KFM5wszxk1T4qdN-104">
          <mxGeometry width="50" height="50" relative="1" as="geometry">
            <mxPoint x="280" y="330" as="sourcePoint" />
            <mxPoint x="330" y="280" as="targetPoint" />
          </mxGeometry>
        </mxCell>
        <mxCell id="ges_4KFM5wszxk1T4qdN-112" value="1" style="edgeLabel;html=1;align=center;verticalAlign=middle;resizable=0;points=[];" vertex="1" connectable="0" parent="ges_4KFM5wszxk1T4qdN-105">
          <mxGeometry x="-0.6757" y="-2" relative="1" as="geometry">
            <mxPoint as="offset" />
          </mxGeometry>
        </mxCell>
        <mxCell id="ges_4KFM5wszxk1T4qdN-106" value="" style="endArrow=none;html=1;rounded=0;" edge="1" parent="1" source="ges_4KFM5wszxk1T4qdN-57" target="ges_4KFM5wszxk1T4qdN-104">
          <mxGeometry width="50" height="50" relative="1" as="geometry">
            <mxPoint x="320" y="300" as="sourcePoint" />
            <mxPoint x="370" y="250" as="targetPoint" />
          </mxGeometry>
        </mxCell>
        <mxCell id="ges_4KFM5wszxk1T4qdN-113" value="M" style="edgeLabel;html=1;align=center;verticalAlign=middle;resizable=0;points=[];" vertex="1" connectable="0" parent="ges_4KFM5wszxk1T4qdN-106">
          <mxGeometry x="-0.687" y="1" relative="1" as="geometry">
            <mxPoint as="offset" />
          </mxGeometry>
        </mxCell>
        <mxCell id="ges_4KFM5wszxk1T4qdN-107" value="hosts" style="rhombus;whiteSpace=wrap;html=1;" vertex="1" parent="1">
          <mxGeometry x="160" y="270" width="60" height="50" as="geometry" />
        </mxCell>
        <mxCell id="ges_4KFM5wszxk1T4qdN-108" value="" style="endArrow=none;html=1;rounded=0;" edge="1" parent="1" source="ges_4KFM5wszxk1T4qdN-107" target="ges_4KFM5wszxk1T4qdN-1">
          <mxGeometry width="50" height="50" relative="1" as="geometry">
            <mxPoint x="130" y="290" as="sourcePoint" />
            <mxPoint x="180" y="240" as="targetPoint" />
          </mxGeometry>
        </mxCell>
        <mxCell id="ges_4KFM5wszxk1T4qdN-110" value="1" style="edgeLabel;html=1;align=center;verticalAlign=middle;resizable=0;points=[];" vertex="1" connectable="0" parent="ges_4KFM5wszxk1T4qdN-108">
          <mxGeometry x="0.6254" y="-2" relative="1" as="geometry">
            <mxPoint as="offset" />
          </mxGeometry>
        </mxCell>
        <mxCell id="ges_4KFM5wszxk1T4qdN-109" value="" style="endArrow=none;html=1;rounded=0;" edge="1" parent="1" source="ges_4KFM5wszxk1T4qdN-20" target="ges_4KFM5wszxk1T4qdN-107">
          <mxGeometry width="50" height="50" relative="1" as="geometry">
            <mxPoint x="40" y="370" as="sourcePoint" />
            <mxPoint x="90" y="320" as="targetPoint" />
          </mxGeometry>
        </mxCell>
        <mxCell id="ges_4KFM5wszxk1T4qdN-111" value="M" style="edgeLabel;html=1;align=center;verticalAlign=middle;resizable=0;points=[];" vertex="1" connectable="0" parent="ges_4KFM5wszxk1T4qdN-109">
          <mxGeometry x="-0.3197" y="-3" relative="1" as="geometry">
            <mxPoint as="offset" />
          </mxGeometry>
        </mxCell>
        <mxCell id="ges_4KFM5wszxk1T4qdN-118" value="has" style="rhombus;whiteSpace=wrap;html=1;" vertex="1" parent="1">
          <mxGeometry x="320" y="510" width="80" height="80" as="geometry" />
        </mxCell>
        <mxCell id="ges_4KFM5wszxk1T4qdN-119" value="has" style="rhombus;whiteSpace=wrap;html=1;" vertex="1" parent="1">
          <mxGeometry x="385" y="390" width="80" height="80" as="geometry" />
        </mxCell>
        <mxCell id="ges_4KFM5wszxk1T4qdN-120" style="edgeStyle=orthogonalEdgeStyle;rounded=0;orthogonalLoop=1;jettySize=auto;html=1;exitX=0.5;exitY=1;exitDx=0;exitDy=0;" edge="1" parent="1" source="ges_4KFM5wszxk1T4qdN-95" target="ges_4KFM5wszxk1T4qdN-95">
          <mxGeometry relative="1" as="geometry" />
        </mxCell>
        <mxCell id="ges_4KFM5wszxk1T4qdN-121" value="" style="endArrow=none;html=1;rounded=0;" edge="1" parent="1" source="ges_4KFM5wszxk1T4qdN-20" target="ges_4KFM5wszxk1T4qdN-118">
          <mxGeometry width="50" height="50" relative="1" as="geometry">
            <mxPoint x="310" y="490" as="sourcePoint" />
            <mxPoint x="360" y="440" as="targetPoint" />
          </mxGeometry>
        </mxCell>
        <mxCell id="ges_4KFM5wszxk1T4qdN-127" value="1" style="edgeLabel;html=1;align=center;verticalAlign=middle;resizable=0;points=[];" vertex="1" connectable="0" parent="ges_4KFM5wszxk1T4qdN-121">
          <mxGeometry x="-0.5917" relative="1" as="geometry">
            <mxPoint as="offset" />
          </mxGeometry>
        </mxCell>
        <mxCell id="ges_4KFM5wszxk1T4qdN-122" value="" style="endArrow=none;html=1;rounded=0;" edge="1" parent="1" source="ges_4KFM5wszxk1T4qdN-118" target="ges_4KFM5wszxk1T4qdN-83">
          <mxGeometry width="50" height="50" relative="1" as="geometry">
            <mxPoint x="360" y="350" as="sourcePoint" />
            <mxPoint x="410" y="300" as="targetPoint" />
          </mxGeometry>
        </mxCell>
        <mxCell id="ges_4KFM5wszxk1T4qdN-128" value="1" style="edgeLabel;html=1;align=center;verticalAlign=middle;resizable=0;points=[];" vertex="1" connectable="0" parent="ges_4KFM5wszxk1T4qdN-122">
          <mxGeometry x="0.2695" relative="1" as="geometry">
            <mxPoint as="offset" />
          </mxGeometry>
        </mxCell>
        <mxCell id="ges_4KFM5wszxk1T4qdN-123" value="" style="endArrow=none;html=1;rounded=0;" edge="1" parent="1" source="ges_4KFM5wszxk1T4qdN-20" target="ges_4KFM5wszxk1T4qdN-119">
          <mxGeometry width="50" height="50" relative="1" as="geometry">
            <mxPoint x="360" y="360" as="sourcePoint" />
            <mxPoint x="410" y="310" as="targetPoint" />
          </mxGeometry>
        </mxCell>
        <mxCell id="ges_4KFM5wszxk1T4qdN-125" value="1" style="edgeLabel;html=1;align=center;verticalAlign=middle;resizable=0;points=[];" vertex="1" connectable="0" parent="ges_4KFM5wszxk1T4qdN-123">
          <mxGeometry x="-0.6712" y="2" relative="1" as="geometry">
            <mxPoint as="offset" />
          </mxGeometry>
        </mxCell>
        <mxCell id="ges_4KFM5wszxk1T4qdN-124" value="" style="endArrow=none;html=1;rounded=0;" edge="1" parent="1" source="ges_4KFM5wszxk1T4qdN-119" target="ges_4KFM5wszxk1T4qdN-38">
          <mxGeometry width="50" height="50" relative="1" as="geometry">
            <mxPoint x="287" y="440" as="sourcePoint" />
            <mxPoint x="420" y="320" as="targetPoint" />
          </mxGeometry>
        </mxCell>
        <mxCell id="ges_4KFM5wszxk1T4qdN-126" value="M" style="edgeLabel;html=1;align=center;verticalAlign=middle;resizable=0;points=[];" vertex="1" connectable="0" parent="ges_4KFM5wszxk1T4qdN-124">
          <mxGeometry x="0.4711" relative="1" as="geometry">
            <mxPoint as="offset" />
          </mxGeometry>
        </mxCell>
      </root>
    </mxGraphModel>
  </diagram>
</mxfile>
